<svg xmlns="http://www.w3.org/2000/svg" style="width:0; height:0; visibility:hidden;">
    <symbol id="maps-and-flags" viewBox="0 0 512 512">
       <polygon style="fill:#FEE191;" points="512,128.819 512,512 384,466.489 349.867,274.898 384,83.308 "/> <polygon style="fill:#FFD24D;" points="384,83.308 384,466.489 256,512 233.244,320.41 256,128.819 "/> <polygon style="fill:#FEE191;" points="256,128.819 256,512 128,466.489 93.867,274.898 128,83.308 "/> <polygon style="fill:#FFD24D;" points="128,83.308 128,466.489 0,512 0,128.819 "/> <path style="fill:#F14742;" d="M435.61,115.61c0,92.573-104.507,178.309-104.507,178.309c-6.106,5.01-16.1,5.01-22.206,0
	c0,0-104.507-85.736-104.507-178.309C204.389,51.761,256.15,0,320,0S435.61,51.761,435.61,115.61z"/> <path style="fill:#FFFFFF;" d="M320,173.774c-32.072,0-58.164-26.093-58.164-58.164S287.928,57.446,320,57.446
	s58.164,26.093,58.164,58.164S352.072,173.774,320,173.774z"/>                
    </symbol>
    <symbol id="phone-receiver" viewBox="0 0 512 512">
       <path style="fill:#FFD24D;" d="M512,129.029C512,57.77,439.257,0,349.533,0c-89.731,0-162.467,57.77-162.467,129.029
	c0,63.663,58.056,116.554,134.419,127.108h-0.231c4.007,24.614-3.386,50.749-22.191,69.733c40.349,0,73.657-30.389,78.716-69.729
	h-0.231C453.921,245.596,512,192.701,512,129.029z"/> <g> <circle style="fill:#F14742;" cx="292.261" cy="129.024" r="11.378"/> <circle style="fill:#F14742;" cx="406.801" cy="129.024" r="11.378"/> <circle style="fill:#F14742;" cx="349.536" cy="129.024" r="11.378"/> </g> <path style="fill:#1B4145;" d="M349.998,411.754c-24.59-24.589-50.926-45.288-50.926-45.288L260.7,404.838L107.162,251.3
	l38.372-38.373c0,0-20.698-26.336-45.288-50.926c-24.59-24.589-50.926-45.288-50.926-45.288S3.343,159.01,0.25,192.558
	c-4.137,44.904,43.395,126.545,118.021,201.172c74.626,74.625,156.267,122.157,201.171,118.021
	c33.547-3.094,75.845-49.071,75.845-49.071S374.588,436.342,349.998,411.754z"/>                
    </symbol></svg>